<?xml version="1.0" encoding="UTF-8"?>
<svg id="Layer_1" data-name="Layer 1" xmlns="http://www.w3.org/2000/svg" viewBox="0 0 250 80">
  <defs>
    <style>
      .cls-1 {
        fill: #231f20;
      }

      .cls-2 {
        fill: #fff;
      }
    </style>
  </defs>
  
  <g>
    <g>
      <path class="cls-1" d="M126.67,14.91h3.31l2.72,23.35h-2.03l-.54-5.13h-3.62l-.54,5.13h-2l2.7-23.35ZM130.04,32.01l-1.67-16.16h-.08l-1.67,16.16h3.41Z"/>
      <path class="cls-1" d="M134.91,14.91h3.29l2.52,14.64,1.34,7.74h.1l-.05-7.74-.08-14.64h1.82v23.35h-3.29l-2.52-14.64-1.34-7.74h-.1l.05,7.74.08,14.64h-1.82V14.91Z"/>
      <path class="cls-1" d="M146.72,35.82v-18.46c0-1.68,1.39-2.56,3.93-2.56s3.9.88,3.9,2.56v6.4h-1.87v-6.43c0-1.01-.74-1.46-2.03-1.46s-2.05.45-2.05,1.46v18.52c0,1.01.72,1.46,2.05,1.46s2.03-.45,2.03-1.46v-6.51h1.87v6.48c0,1.68-1.41,2.56-3.9,2.56s-3.93-.88-3.93-2.56Z"/>
      <path class="cls-1" d="M163.38,26.86h-4.08v11.4h-1.87V14.91h1.87v10.83h4.08v-10.83h1.87v23.35h-1.87v-11.4Z"/>
      <path class="cls-1" d="M168.24,14.91h5.98v1.1h-4.11v9.74h4.11v1.1h-4.11v10.3h4.11v1.1h-5.98V14.91Z"/>
      <path class="cls-1" d="M175.42,37.34l5.24-21.5h-5.24v-.93h7.19v.93l-5.24,21.5h5.24v.93h-7.19v-.93Z"/>
    </g>
    <g>
      <path class="cls-1" d="M124.67,41.08h6.09v1.15h-4.18v10.18h4.18v1.15h-4.18v10.77h4.18v1.15h-6.09v-24.41Z"/>
      <path class="cls-1" d="M132.83,63.08v-19.45c0-1.76,1.41-2.68,4-2.68s3.97.92,3.97,2.68v6.69h-1.91v-6.72c0-1.05-.76-1.52-2.07-1.52s-2.09.47-2.09,1.52v19.45c0,.94.76,1.44,1.86,1.44s1.78-.22,2.3-.64v-9.2h-2.07v-1.19h3.97v12.02h-1.07l-.34-.95c-.71.75-1.75,1.07-3.03,1.07-2.2,0-3.53-.92-3.53-2.52Z"/>
      <path class="cls-1" d="M143.76,62.93v-21.85h1.91v21.89c0,1.05.73,1.52,2.09,1.52s2.07-.47,2.07-1.52v-21.89h1.91v21.85c0,1.76-1.44,2.68-3.97,2.68s-4-.92-4-2.68Z"/>
      <path class="cls-1" d="M154.8,41.08h3.69c2.56,0,3.82.75,3.82,2.32v7.39c0,1.24-.65,1.87-2.25,2.14v.03c1.59.28,2.25.92,2.25,2.19v7.17c0,.9,0,1.91.5,3.16h-1.96c-.47-1.22-.5-2.26-.5-3.16v-7.27c0-1.12-.71-1.49-2.14-1.49h-1.49v11.92h-1.91v-24.41ZM158.19,52.42c1.46,0,2.14-.38,2.14-1.52v-7.51c0-.85-.71-1.19-1.91-1.19h-1.73v10.22h1.49Z"/>
      <path class="cls-1" d="M165.28,62.93v-19.3c0-1.76,1.41-2.68,4-2.68s3.95.92,3.95,2.68v19.3c0,1.76-1.41,2.68-3.95,2.68s-4-.92-4-2.68ZM169.28,64.49c1.31,0,2.04-.47,2.04-1.52v-19.36c0-1.05-.73-1.52-2.04-1.52s-2.09.47-2.09,1.52v19.36c0,1.05.73,1.52,2.09,1.52Z"/>
      <path class="cls-1" d="M176.16,62.93v-6.52h1.91v6.55c0,1.05.71,1.52,1.99,1.52s1.96-.47,1.96-1.52v-4.98c0-1.42-.31-2.36-1.52-3.46l-2.46-2.26c-1.41-1.29-1.88-2.32-1.88-4.26v-4.36c0-1.76,1.36-2.68,3.9-2.68s3.87.92,3.87,2.68v5.94h-1.91v-5.97c0-1.05-.71-1.52-1.96-1.52s-1.99.47-1.99,1.52v4.4c0,1.49.39,2.42,1.52,3.46l2.46,2.26c1.41,1.29,1.88,2.24,1.88,4.26v4.95c0,1.76-1.39,2.68-3.87,2.68s-3.9-.92-3.9-2.68Z"/>
    </g>
    <path class="cls-1" d="M96.23,49.48l9.28.28c-.99,7.39,0,11.79,2.49,11.79,2.05,0,2.94-4.91,2.43-6.73-1.27-4.5-1.88-7.16-4.92-10.31l-3.87-4.08c-3.43-3.48-6.03-7.57-6.03-14.13,0-9.17,4.81-14.19,12.55-14.19,9.56,0,13.75,8.52,10.77,19.32l-8.78-.14c1.16-5.26.06-12.08-2.49-12.08-1.82,0-2.49,4.01-2.49,5.88,0,4.02,1.71,6.16,4.31,8.9l3.7,3.95c3.87,4.02,6.97,8.77,6.97,16.27s-4.59,13.66-11.72,13.66c-8.46,0-14.52-3.2-12.2-18.4Z"/>
    <path class="cls-1" d="M66.07,50.01v-20.15c0-11.18,3.4-17.74,13.53-17.74s13.64,6.56,13.64,17.74v20.15c0,11.18-3.45,17.88-13.64,17.88s-13.53-6.7-13.53-17.88ZM83.06,53.02v-26.11c0-3.21-.33-6.36-3.45-6.36-2.95,0-3.34,3.15-3.34,6.36v26.11c0,3.08.22,6.36,3.34,6.36s3.45-3.28,3.45-6.36Z"/>
  </g>
</svg>