<?xml version="1.0" encoding="UTF-8"?>
<svg id="Layer_1" data-name="Layer 1" xmlns="http://www.w3.org/2000/svg" viewBox="0 0 150 50">
  <defs>
    <style>
      .cls-1 {
        fill: #231f20;
      }

      .cls-2 {
        fill: #fff;
      }
    </style>
  </defs>
  
  <g>
    <g>
      <path class="cls-1" d="M76,9.32h1.99l1.63,14.6h-1.22l-.32-3.21h-2.17l-.32,3.21h-1.2l1.62-14.6ZM78.02,20.01l-1-10.1h-.05l-1,10.1h2.05Z"/>
      <path class="cls-1" d="M80.95,9.32h1.97l1.51,9.15.8,4.84h.06l-.03-4.84-.05-9.15h1.09v14.6h-1.97l-1.51-9.15-.8-4.84h-.06l.03,4.84.05,9.15h-1.09v-14.6Z"/>
      <path class="cls-1" d="M88.03,22.39v-11.54c0-1.05.83-1.6,2.36-1.6s2.34.55,2.34,1.6v4h-1.12v-4.02c0-.63-.45-.91-1.22-.91s-1.23.28-1.23.91v11.58c0,.63.43.91,1.23.91s1.22-.28,1.22-.91v-4.07h1.12v4.05c0,1.05-.85,1.6-2.34,1.6s-2.36-.55-2.36-1.6Z"/>
      <path class="cls-1" d="M98.03,16.79h-2.45v7.13h-1.12v-14.6h1.12v6.77h2.45v-6.77h1.12v14.6h-1.12v-7.13Z"/>
      <path class="cls-1" d="M100.94,9.32h3.59v.69h-2.46v6.09h2.46v.69h-2.46v6.44h2.46v.69h-3.59v-14.6Z"/>
      <path class="cls-1" d="M105.25,23.34l3.14-13.44h-3.14v-.58h4.31v.58l-3.14,13.44h3.14v.58h-4.31v-.58Z"/>
    </g>
    <g>
      <path class="cls-1" d="M74.8,25.67h3.66v.72h-2.51v6.36h2.51v.72h-2.51v6.73h2.51v.72h-3.66v-15.26Z"/>
      <path class="cls-1" d="M79.7,39.43v-12.15c0-1.1.85-1.67,2.4-1.67s2.38.57,2.38,1.67v4.18h-1.15v-4.2c0-.66-.45-.95-1.24-.95s-1.26.29-1.26.95v12.15c0,.59.45.9,1.11.9s1.07-.14,1.38-.4v-5.75h-1.24v-.74h2.38v7.51h-.64l-.2-.6c-.42.47-1.05.67-1.82.67-1.32,0-2.12-.57-2.12-1.58Z"/>
      <path class="cls-1" d="M86.26,39.33v-13.66h1.15v13.68c0,.66.44.95,1.26.95s1.24-.29,1.24-.95v-13.68h1.15v13.66c0,1.1-.86,1.67-2.38,1.67s-2.4-.57-2.4-1.67Z"/>
      <path class="cls-1" d="M92.88,25.67h2.21c1.54,0,2.29.47,2.29,1.45v4.62c0,.77-.39,1.17-1.35,1.34v.02c.96.18,1.35.57,1.35,1.37v4.48c0,.56,0,1.19.3,1.98h-1.18c-.28-.76-.3-1.41-.3-1.98v-4.55c0-.7-.42-.93-1.29-.93h-.89v7.45h-1.15v-15.26ZM94.92,32.76c.88,0,1.29-.24,1.29-.95v-4.69c0-.53-.42-.74-1.15-.74h-1.04v6.39h.89Z"/>
      <path class="cls-1" d="M99.17,39.33v-12.06c0-1.1.85-1.67,2.4-1.67s2.37.57,2.37,1.67v12.06c0,1.1-.85,1.67-2.37,1.67s-2.4-.57-2.4-1.67ZM101.57,40.3c.78,0,1.22-.29,1.22-.95v-12.1c0-.66-.44-.95-1.22-.95s-1.26.29-1.26.95v12.1c0,.66.44.95,1.26.95Z"/>
      <path class="cls-1" d="M105.7,39.33v-4.08h1.15v4.1c0,.66.42.95,1.19.95s1.18-.29,1.18-.95v-3.11c0-.89-.19-1.47-.91-2.16l-1.47-1.41c-.85-.8-1.13-1.45-1.13-2.66v-2.73c0-1.1.82-1.67,2.34-1.67s2.32.57,2.32,1.67v3.71h-1.15v-3.73c0-.66-.42-.95-1.18-.95s-1.19.29-1.19.95v2.75c0,.93.24,1.52.91,2.16l1.47,1.41c.85.8,1.13,1.4,1.13,2.66v3.09c0,1.1-.83,1.67-2.32,1.67s-2.34-.57-2.34-1.67Z"/>
    </g>
    <path class="cls-1" d="M57.74,30.93l5.57.18c-.6,4.62,0,7.37,1.49,7.37,1.23,0,1.77-3.07,1.46-4.2-.76-2.81-1.13-4.48-2.95-6.44l-2.32-2.55c-2.06-2.18-3.62-4.73-3.62-8.83,0-5.73,2.89-8.87,7.53-8.87,5.74,0,8.25,5.33,6.46,12.08l-5.27-.09c.7-3.29.04-7.55-1.49-7.55-1.09,0-1.49,2.51-1.49,3.68,0,2.51,1.03,3.85,2.59,5.57l2.22,2.47c2.32,2.51,4.18,5.48,4.18,10.17s-2.75,8.54-7.03,8.54c-5.07,0-8.71-2-7.32-11.5Z"/>
    <path class="cls-1" d="M39.64,31.26v-12.59c0-6.99,2.04-11.09,8.12-11.09s8.18,4.1,8.18,11.09v12.59c0,6.99-2.07,11.17-8.18,11.17s-8.12-4.18-8.12-11.17ZM49.83,33.14v-16.32c0-2.01-.2-3.97-2.07-3.97-1.77,0-2.01,1.97-2.01,3.97v16.32c0,1.93.13,3.98,2.01,3.98s2.07-2.05,2.07-3.98Z"/>
  </g>
</svg>